HIERARCHY
ROOT Hips
{
	OFFSET -14.64140 90.27770 -84.91600
	CHANNELS 6 Xposition Yposition Zposition Zrotation Xrotation Yrotation
	JOINT Spine
	{
		OFFSET 0.00000 13.20850 -1.60436
		CHANNELS 3 Zrotation Xrotation Yrotation
		JOINT Spine1
		{
			OFFSET 0.00000 8.61716 0.00000
			CHANNELS 3 Zrotation Xrotation Yrotation
			JOINT Spine2
			{
				OFFSET 0.00000 8.61717 0.00000
				CHANNELS 3 Zrotation Xrotation Yrotation
				JOINT Spine3
				{
					OFFSET 0.00000 8.61717 0.00000
					CHANNELS 3 Zrotation Xrotation Yrotation
					JOINT Neck
					{
						OFFSET 0.00000 11.07920 1.10792
						CHANNELS 3 Zrotation Xrotation Yrotation
						JOINT Neck1
						{
							OFFSET 0.00000 7.08032 0.00000
							CHANNELS 3 Zrotation Xrotation Yrotation
							JOINT Head
							{
								OFFSET 0.00000 7.08031 0.00000
								CHANNELS 3 Zrotation Xrotation Yrotation
								End site
								{
									OFFSET 0.00000 0.00000 0.00000
								}
							}
						}
					}
					JOINT RightShoulder
					{
						OFFSET -0.01000 7.91373 5.19711
						CHANNELS 3 Zrotation Xrotation Yrotation
						JOINT RightArm
						{
							OFFSET -18.41580 0.00000 0.00000
							CHANNELS 3 Zrotation Xrotation Yrotation
							JOINT RightForeArm
							{
								OFFSET -29.11090 0.00000 0.00000
								CHANNELS 3 Zrotation Xrotation Yrotation
								JOINT RightHand
								{
									OFFSET -24.65040 0.00000 0.00000
									CHANNELS 3 Zrotation Xrotation Yrotation
									JOINT RightHandThumb1
									{
										OFFSET -5.35114 -0.85590 3.97906
										CHANNELS 3 Zrotation Xrotation Yrotation
										JOINT RightHandThumb2
										{
											OFFSET -4.52789 0.00000 0.00000
											CHANNELS 3 Zrotation Xrotation Yrotation
											JOINT RightHandThumb3
											{
												OFFSET -2.46976 0.00000 0.00000
												CHANNELS 3 Zrotation Xrotation Yrotation
												End site
												{
													OFFSET 0.00000 0.00000 0.00000
												}
											}
										}
									}
									JOINT RightHandIndex1
									{
										OFFSET -14.26970 0.00000 2.88139
										CHANNELS 3 Zrotation Xrotation Yrotation
										JOINT RightHandIndex2
										{
											OFFSET -5.48836 0.00000 0.00000
											CHANNELS 3 Zrotation Xrotation Yrotation
											JOINT RightHandIndex3
											{
												OFFSET -3.01859 0.00000 0.00000
												CHANNELS 3 Zrotation Xrotation Yrotation
												End site
												{
													OFFSET 0.00000 0.00000 0.00000
												}
											}
										}
									}
									JOINT RightHandMiddle1
									{
										OFFSET -14.26970 0.00000 -0.09147
										CHANNELS 3 Zrotation Xrotation Yrotation
										JOINT RightHandMiddle2
										{
											OFFSET -6.17441 0.00000 0.00000
											CHANNELS 3 Zrotation Xrotation Yrotation
											JOINT RightHandMiddle3
											{
												OFFSET -3.56743 0.00000 0.00000
												CHANNELS 3 Zrotation Xrotation Yrotation
												End site
												{
													OFFSET 0.00000 0.00000 0.00000
												}
											}
										}
									}
									JOINT RightHandRing1
									{
										OFFSET -12.69180 0.00000 -3.06433
										CHANNELS 3 Zrotation Xrotation Yrotation
										JOINT RightHandRing2
										{
											OFFSET -5.62556 0.00000 0.00000
											CHANNELS 3 Zrotation Xrotation Yrotation
											JOINT RightHandRing3
											{
												OFFSET -3.56744 0.00000 0.00000
												CHANNELS 3 Zrotation Xrotation Yrotation
												End site
												{
													OFFSET 0.00000 0.00000 0.00000
												}
											}
										}
									}
									JOINT RightHandPinky1
									{
										OFFSET -11.11390 0.00000 -6.03719
										CHANNELS 3 Zrotation Xrotation Yrotation
										JOINT RightHandPinky2
										{
											OFFSET -4.52789 0.00000 0.00000
											CHANNELS 3 Zrotation Xrotation Yrotation
											JOINT RightHandPinky3
											{
												OFFSET -2.46976 0.00000 0.00000
												CHANNELS 3 Zrotation Xrotation Yrotation
												End site
												{
													OFFSET 0.00000 0.00000 0.00000
												}
											}
										}
									}
								}
							}
						}
					}
					JOINT LeftShoulder
					{
						OFFSET 0.01000 7.91373 5.19711
						CHANNELS 3 Zrotation Xrotation Yrotation
						JOINT LeftArm
						{
							OFFSET 18.41580 0.00000 0.00000
							CHANNELS 3 Zrotation Xrotation Yrotation
							JOINT LeftForeArm
							{
								OFFSET 29.11090 0.00000 0.00000
								CHANNELS 3 Zrotation Xrotation Yrotation
								JOINT LeftHand
								{
									OFFSET 24.65040 0.00000 0.00000
									CHANNELS 3 Zrotation Xrotation Yrotation
									JOINT LeftHandThumb1
									{
										OFFSET 5.35114 -0.85590 3.97906
										CHANNELS 3 Zrotation Xrotation Yrotation
										JOINT LeftHandThumb2
										{
											OFFSET 4.52789 0.00000 0.00000
											CHANNELS 3 Zrotation Xrotation Yrotation
											JOINT LeftHandThumb3
											{
												OFFSET 2.46977 0.00000 0.00000
												CHANNELS 3 Zrotation Xrotation Yrotation
												End site
												{
													OFFSET 0.00000 0.00000 0.00000
												}
											}
										}
									}
									JOINT LeftHandIndex1
									{
										OFFSET 14.26970 0.00000 2.88139
										CHANNELS 3 Zrotation Xrotation Yrotation
										JOINT LeftHandIndex2
										{
											OFFSET 5.48836 0.00000 0.00000
											CHANNELS 3 Zrotation Xrotation Yrotation
											JOINT LeftHandIndex3
											{
												OFFSET 3.01859 0.00000 0.00000
												CHANNELS 3 Zrotation Xrotation Yrotation
												End site
												{
													OFFSET 0.00000 0.00000 0.00000
												}
											}
										}
									}
									JOINT LeftHandMiddle1
									{
										OFFSET 14.26970 0.00000 -0.09147
										CHANNELS 3 Zrotation Xrotation Yrotation
										JOINT LeftHandMiddle2
										{
											OFFSET 6.17440 0.00000 0.00000
											CHANNELS 3 Zrotation Xrotation Yrotation
											JOINT LeftHandMiddle3
											{
												OFFSET 3.56744 0.00000 0.00000
												CHANNELS 3 Zrotation Xrotation Yrotation
												End site
												{
													OFFSET 0.00000 0.00000 0.00000
												}
											}
										}
									}
									JOINT LeftHandRing1
									{
										OFFSET 12.69180 0.00000 -3.06433
										CHANNELS 3 Zrotation Xrotation Yrotation
										JOINT LeftHandRing2
										{
											OFFSET 5.62556 0.00000 0.00000
											CHANNELS 3 Zrotation Xrotation Yrotation
											JOINT LeftHandRing3
											{
												OFFSET 3.56744 0.00000 0.00000
												CHANNELS 3 Zrotation Xrotation Yrotation
												End site
												{
													OFFSET 0.00000 0.00000 0.00000
												}
											}
										}
									}
									JOINT LeftHandPinky1
									{
										OFFSET 11.11390 0.00000 -6.03719
										CHANNELS 3 Zrotation Xrotation Yrotation
										JOINT LeftHandPinky2
										{
											OFFSET 4.52789 0.00000 0.00000
											CHANNELS 3 Zrotation Xrotation Yrotation
											JOINT LeftHandPinky3
											{
												OFFSET 2.46976 0.00000 0.00000
												CHANNELS 3 Zrotation Xrotation Yrotation
												End site
												{
													OFFSET 0.00000 0.00000 0.00000
												}
											}
										}
									}
								}
							}
						}
					}
					JOINT pCube4
					{
						OFFSET 0.00000 10.91090 1.10792
						CHANNELS 3 Zrotation Xrotation Yrotation
						End site
						{
							OFFSET 0.00000 0.00000 0.00000
						}
					}
				}
			}
		}
	}
	JOINT RightUpLeg
	{
		OFFSET -9.98441 0.00000 0.00000
		CHANNELS 3 Zrotation Xrotation Yrotation
		JOINT RightLeg
		{
			OFFSET 0.00000 -42.11790 0.00000
			CHANNELS 3 Zrotation Xrotation Yrotation
			JOINT RightFoot
			{
				OFFSET 0.00000 -45.00020 -0.00001
				CHANNELS 3 Zrotation Xrotation Yrotation
				JOINT RightForeFoot
				{
					OFFSET 0.00000 -3.74820 0.00000
					CHANNELS 3 Zrotation Xrotation Yrotation
					JOINT RightToeBase
					{
						OFFSET 0.00000 0.06325 14.43120
						CHANNELS 3 Zrotation Xrotation Yrotation
						End site
						{
							OFFSET 0.00000 0.00000 0.00000
						}
					}
				}
			}
		}
	}
	JOINT LeftUpLeg
	{
		OFFSET 9.98441 0.00000 0.00000
		CHANNELS 3 Zrotation Xrotation Yrotation
		JOINT LeftLeg
		{
			OFFSET 0.00000 -42.11800 0.00000
			CHANNELS 3 Zrotation Xrotation Yrotation
			JOINT LeftFoot
			{
				OFFSET 0.00000 -45.00070 0.00000
				CHANNELS 3 Zrotation Xrotation Yrotation
				JOINT LeftForeFoot
				{
					OFFSET 0.00000 -3.74824 0.00000
					CHANNELS 3 Zrotation Xrotation Yrotation
					JOINT LeftToeBase
					{
						OFFSET 0.00000 0.06325 14.43110
						CHANNELS 3 Zrotation Xrotation Yrotation
						End site
						{
							OFFSET 0.00000 0.00000 0.00000
						}
					}
				}
			}
		}
	}
}
MOTION
Frames: 4
Frame Time: 0.050000
0.032757234913748254 0.024352066989954915 0.0033851505312985104 -0.010855489366223457 0.0165696636881628 -0.01937556266390287 4.057728067698508 4.366384483916173 -1.819247339385934 -0.9771949178604445 3.923570510066422 0.3643501349586311 -0.5930462183318493 -0.9775155352066957 0.3968610468626949 -0.5863131642529302 0.19617491257716566 -0.3947920785046331 -1.0050781219097016 13.826532118514145 1.322524902152516 0.20338826575790103 -0.9075667930650068 3.309190313897141 0.09414674182292576 -17.88918498855479 0.2835636507758449 -8.269035243090938 2.949870911786063 -16.921630133787346 80.51592386418322 15.269487966112402 2.389041795992293 -0.6560172482836205 6.049987887683095 55.26930320821975 14.306186581471048 -0.19271787229907456 -1.2306860704941294 4.502596960595759 -0.09989642632761403 -1.5953793355877226 -0.04517424205111518 -0.021801386359575528 -56.23903764867947 0.005905721330372289 0.043152736291074134 -56.20891922713433 -38.772281391708084 0.006081458514019394 0.04482677756911305 -0.0012450119434508015 0.015366882814779584 -0.0068095066822996516 0.04119183952179194 -0.007780682254405949 -0.026343975528398712 -36.68962107003245 -0.001955986521162055 -0.010667982678238524 -0.02724413379531188 0.026286594259605327 0.01596519808830285 0.012385198788716297 -0.002761886761955987 0.004525655944819292 -19.795604637004445 0.025824702774330095 -0.04829166202820467 0.03193791349259256 -0.009632216031765254 -0.014704756329601493 0.011760623744981245 -0.012287559220710198 -0.024269163869090168 24.05891064165277 0.015244408519331423 -0.0011124460719265474 28.84515543572699 -0.01610579174710773 0.016976035985790477 28.866139862678807 0.024392375372475898 -0.006183212855852421 10.448652128031558 2.413076093622983 14.905200162254296 -72.8255426558074 25.52674851977603 -17.99202750523286 16.72505921970923 -6.777669193827194 -71.96998444956132 -7.090818959024921 1.100326130360544 -2.622229883683733 -0.43025236342489626 0.09067096180828871 -8.10790812446493 0.001207232378670465 0.027620424422179667 44.5834612715016 -0.012509009559349974 -0.024047537268721476 44.5269555187046 12.504875446268633 -0.009665042208362057 -0.01034601501884001 0.012417655073613523 0.02764369014681744 0.044259712311328615 -0.03771414665095721 0.02902105145990869 -0.02984842132088001 11.117027403052964 0.027154199264878064 0.019534549418832668 0.017957906043031303 -0.01628318962911766 0.021697743937785154 0.017546960571424467 0.012708934570193016 0.02153196852771805 4.804292426796195 -0.01530865976674248 -0.0024093637271122687 0.006235691882218321 -0.019436251241385177 0.02691150768303913 -0.015260635041468882 0.011548201033141808 0.006477701066238734 -5.612369149949753 -0.048805067049726716 -0.016765809578348497 -6.732303815351605 -0.03097053959535008 0.01196115989315973 -6.698203887992453 0.006376701523709731 -0.0394022452469579 -0.037693080078824846 -0.015260053369091748 -0.0073249571724075145 8.043489812114144 3.5132461155336725 -19.263289015352356 0.046623464391615944 10.405756310903813 0.04597426201617566 -5.60481849376571 -15.613688412828862 3.201452738933693 0.004596251194354752 0.012447490697731526 0.044999880482549125 -0.0232163280471765 4.6763002141644305 -0.01757518232137058 12.487633818921498 -8.210783474275981 6.835023430326116 -0.023085701732607204 46.33095878631021 -0.04200272476684294 -4.31708439125833 -14.768325197769874 -3.8429235706843285 0.022799525676151514 -0.014167798724090474 0.046721334080092845 -0.03301928529529239 -10.727548461865476 0.0377636889734765 
0.04164434307055486 -0.017209592169906647 -0.02064049568668566 -0.00986128627970321 0.020210233286186135 -0.04639173625255262 4.253936070921417 4.3004068047934725 -1.8860057416949034 -0.9259869779757733 3.930928664216957 0.406232897263303 -0.5895511760127522 -1.0655759083519871 0.43764642697648415 -0.4292382571772464 0.1883994391949985 -0.3484225906517572 -0.7757121568032358 13.93565922885767 0.7311755134113688 0.28956071971616093 -0.9730941842125288 1.9695728737365994 0.39687045742290594 -17.945208139806752 0.1045784940571993 -8.44996988556341 2.969411648655445 -17.136370144647426 80.71662558824094 15.351190830239007 2.26472575918602 -0.557680128207901 5.736738132208021 54.53691883390721 14.37312150662198 -0.21864011520723606 -1.0101088776013742 4.521600308853268 -0.15792842210522182 -1.569534412994092 -0.034311165638258444 -0.03639983934219607 -56.27375061967291 0.026311453655321018 -0.014186584957700248 -56.26588273630612 -38.7391704922832 0.04868308129815944 -0.046612153726655906 -0.024466606406019057 -0.008050949794788419 0.040943959407115926 0.01753120978083626 0.03435376357467192 -0.006508320628908618 -36.68538834684822 0.02239922918283177 -0.013265658171773335 -0.002390085022800622 0.01928523737084635 0.006596579346265255 -0.040375370345170324 0.04003104993355582 -0.04748172655830588 -19.711803801606163 0.019892775676869888 -0.001433397603345367 -0.013287971693733008 -0.005813293752761709 -0.0063444010468230614 0.003294815950940575 -0.034771395633791106 0.006999646364061173 24.036727614043457 -0.00994237279536295 0.04367388409964999 28.849291024014022 0.0006568243724176359 -0.013810149918379037 28.83628390010211 0.02411287742976944 -0.015576800581235641 10.23642332768237 2.365257140480958 14.9610398435404 -72.86974365225937 26.434974525560097 -16.835779067921536 17.816504941482748 -8.338641660877107 -73.68531117324363 -6.226710985217591 1.5773433331641296 -3.8442621013281912 -0.4856819277401771 0.0783195781083681 -8.150472289547132 0.01844068034210393 0.024859625189106553 44.596156914062874 -0.012218916042519762 -0.043805181632539054 44.588158219375394 12.481048412386881 0.040311203407262026 0.044344922363028595 0.03998202296957422 0.03946485221331043 0.04161493570007684 -0.023123663016055118 -0.04480783115760909 -0.013676850170092894 11.081902478491019 -0.025089048055189654 0.03771672722210848 -0.01710452452550695 0.014739885692010232 -0.025958955706365444 0.04179207842449514 0.016738230030700293 0.038214490709016384 4.76457060197832 0.013025471791715102 -0.03347208420291655 0.012689835379694576 -0.04201299842970485 -0.040432303252927286 -0.024733880527691283 -0.038515565662309945 0.011040408211839338 -5.601653345874952 -0.020556193612032286 -0.004117535818796402 -6.7605164287309885 -0.01915304739048336 -0.004800260527127609 -6.706913866483033 -0.0142440209159962 -0.020538136778228615 0.02616496749613898 -0.025567883365312034 -0.012040295064329028 8.01158596524752 3.4867446374001956 -19.23332559205398 -0.04035438545306902 10.412484699574978 -0.022740090923112268 -5.658140566856556 -15.684320715628834 3.1639386632645836 0.041485237839626134 0.014973765385159947 0.014114842666230231 -0.0016552838736423347 4.69413610414192 -0.048192426536848305 12.508813588536812 -8.233444777644976 6.881380941977533 0.03380833345907399 46.38615376731953 -0.037116131919043435 -4.346881651919895 -14.76522157925579 -3.876468917838649 -0.011303573504161089 -0.022815999010968833 0.012792071928156819 -0.016216043131354545 -10.698597584528661 0.013405092818043144 
-0.030531481507256843 0.038499277695856204 0.008153697167147344 -0.03895871185388942 0.012757975421209778 0.011330520804447275 4.429224591443555 4.197666361468292 -1.8961014161809477 -0.9098561645754485 3.8973507066905935 0.39280830801434774 -0.691642958583552 -1.0164559901227128 0.4409129744020554 -0.2702725756018269 0.22516050279575622 -0.35749067687867825 -0.5414967740567144 13.960100565354843 0.05119442137263031 0.297941142339704 -0.9826349088422606 0.5506298259484143 0.5993504169531577 -17.977666219357893 -0.047627036929084696 -8.637202754694982 3.000964439707664 -17.315262691771014 80.98823654768546 15.280125594606751 1.990716955358277 -0.26887543525049246 5.610774303417138 53.48412103460022 14.600791933477176 -0.19060578656189733 -0.7256282747096182 4.513836927037914 -0.10189302788721266 -1.625011720539285 -0.014307954720849149 0.005112597544221975 -56.24168132621024 0.025871955687298196 -0.011031724393540079 -56.23371472408818 -38.753144911668976 -0.045621945643735354 0.013013111114935715 0.029039994798247253 0.003130472004093501 0.013550814325874539 0.033563710228528935 0.0019313245000809722 0.02439280926997424 -36.656198382909004 -0.04625242503010081 -0.014912840543097581 0.00309701232069999 -0.019287748740543318 -0.008898433191491242 0.01052894183806046 0.026948899651789444 0.004121027599547936 -19.74741955485588 0.024124208875040534 0.026135368874639603 0.034621844020730395 -0.04185665262346463 0.0053555037157299425 -0.0041531668324882 -0.015911025691929145 0.0036956407609892057 24.090473009331696 -0.0012831584515031586 0.03635446346029349 28.83500252419848 0.005391659142114473 -0.009167770515499054 28.869132884173386 -0.04035547899971574 0.0030713676006206008 10.067598684612639 2.3196854697329767 14.995250956657475 -73.01237034036596 27.154114535380433 -15.742650637921704 18.17842222387983 -8.929577778619235 -75.56400855810013 -5.589998368991398 2.1008448248651512 -5.083047251132676 -0.45742247387153784 0.09505481765226667 -8.140674259223823 -0.005498498949127022 0.022893798606042685 44.527890946102524 -0.030519378723612357 -0.013888481374061758 44.521313440854065 12.447351956481882 0.00874380765292053 0.03065783189719425 -0.03734256527247792 0.013621095990406151 -0.02063470913735405 0.006311621420639012 0.04827826823600293 0.021437574665085307 11.130409426277335 0.021504191223124542 0.013074835004572927 0.0015007227338127906 0.03260785730287673 0.038649054515339384 0.006539114810616514 -0.00898263223682664 0.04226299110935252 4.786081781452558 0.01249967220354632 -0.024161703799762863 0.022338326272202436 -0.01034971418055803 -0.02156237175946766 0.014392406995563507 -0.008445523407064027 0.03471874756076312 -5.5582186054024625 0.005462994680022493 0.047118832068716844 -6.714120079565837 -0.005996358929478419 0.0127387828050602 -6.683244116594164 0.01671429604755095 0.043112147878643634 0.014781870519959817 0.04069803525207034 -0.031917469082028395 8.05845619311551 3.4827435149198225 -19.17870762346479 0.02452437672993652 10.444466194775801 0.010168996862456661 -5.6480822003263835 -15.621604731966846 3.2352473007928655 0.019594283977199787 0.0003568360640100098 -0.04415272741203653 -0.018919947477745357 4.726720534710011 -0.02439481465436044 12.457154872526809 -8.245562729952793 6.891947686500374 0.006998514022545847 46.329654959992304 -0.041080641947651916 -4.332845640119934 -14.761313992968125 -3.822733598025548 0.003571178755229676 0.0015092262095217446 0.021796291081693574 -0.023679861457118104 -10.704247084632025 0.03936763055320977 
0.02631335280626179 0.021096727149360377 0.01335189678875046 -0.01857479827275277 -0.011342953061058854 -0.032715466234073134 4.690444832433559 4.105297809554382 -1.9350377295632821 -0.893940262019247 3.905664217174969 0.3482165860784519 -0.6154632346470399 -1.0989187964189921 0.491931676821755 -0.12617912253906294 0.1474096458735633 -0.36869396684978184 -0.29256078360977106 13.91105271844497 -0.4808581730005321 0.3719282649403698 -0.966227415221654 -0.6903926880872141 0.8018951968606579 -18.19245578561509 -0.15813602226071677 -8.853249240872515 3.004213595565123 -17.496129399718175 81.19112857303409 14.747170572031276 1.8005416950470072 -0.1858473290550576 5.490661577888386 52.361158189308306 14.781537009740003 -0.12952893828947828 -0.4880980683878946 4.557971668606558 -0.1393081710770872 -1.5984045483004232 -0.043198115118806064 0.02802549800973625 -56.214132610011205 -0.046606127165697585 -0.04122602728960398 -56.214557851282066 -38.8111745587087 0.03168456480177883 8.200768310570524e-05 -0.04773205957072513 -0.0338953098322275 0.03814689732407304 -0.030804066324567614 -0.0004276207306186996 0.04713057837553497 -36.701117893187835 -0.018244608058414474 -0.00507374554290459 -0.016690876660196252 0.006146400930283659 0.04993431894060182 -0.010441396617003032 0.03461154901361369 -0.007597579090831176 -19.774760246928057 0.013045100598181087 0.009019208141799137 -0.022343302136213914 -0.046147072037270656 0.045733973484257034 -0.01726103752304032 0.017496309998500485 -0.013538661766310542 24.07913862010102 0.03678552629285038 -0.021427162317360908 28.879574156179864 -0.02614927196638311 0.022666204654937648 28.825476084579122 -0.0030642833985131124 0.01643827911798893 9.900836157156458 2.362143353687056 14.966042201340247 -73.13529679120225 27.55887508035078 -14.886421446327935 17.781953959753583 -9.182788774175245 -76.33038765640056 -5.440597470095424 2.4575172126930624 -5.8654637691283735 -0.4539237660847583 0.08337588741941578 -8.159216091748945 0.03675063654514712 0.0074640193713553 44.56026837248747 0.03332326346662824 0.00624941224450883 44.5726565460064 12.426986458780247 -0.0007467960684915709 0.015490073708120233 0.014460490553446125 0.0012822960259127856 -0.018494429934742526 0.03446292914767629 -0.024230313175584405 -0.005361335655188181 11.105190010295006 -0.019132915515140334 0.02353624821050147 -0.014431886113886908 -0.018159655704966454 -0.04237869237401863 0.04308697666248505 0.00021894239134314828 -0.03778889067480584 4.754433698435022 0.02585418216119126 -0.014006728127299774 -0.028161130247931484 0.018292590652801498 -0.04633877565020817 -0.036690070176863 0.020373432618726626 0.01697006904466998 -5.605280011845037 0.021968886587302203 0.03653121393551295 -6.713980514955061 -0.04867025674396963 -0.01129086678339727 -6.690674987736562 0.01825792515462316 0.0351210702264601 -0.01291942161850975 -0.002633681059895394 -0.0347741732473954 7.9976893171656895 3.4855327323495775 -19.213941581451536 0.044520291776721295 10.409262006941459 0.0022113206920593015 -5.619614337233151 -15.615076278866457 3.2079322719355168 0.014378305816889956 -0.00964530761632169 0.007048143907994469 -0.004291318149938662 4.719622540442787 -0.002617422982565924 12.46760973510251 -8.263894471130957 6.923962972466799 -0.0026652725389145707 46.3713667009041 0.01661330708477993 -4.36041335668268 -14.781687767344522 -3.7866600077086408 -0.02248137785688397 0.003816159326477573 0.0477797793602658 0.03818023227244753 -10.711142524349448 0.004058497196600262 
